<svg width="18" height="18" viewBox="0 0 18 18" fill="none" xmlns="http://www.w3.org/2000/svg">
<path d="M16.6798 18L12.3502 13.6702C11.7237 14.1874 11.0033 14.5921 10.189 14.8845C9.37461 15.1768 8.53216 15.323 7.66162 15.323C5.52025 15.323 3.70798 14.5816 2.22479 13.0989C0.741595 11.6161 0 9.80428 0 7.66337C0 5.52266 0.741386 3.71021 2.22416 2.226C3.70693 0.742 5.51879 0 7.65974 0C9.80048 0 11.613 0.741581 13.0972 2.22475C14.5812 3.70791 15.3232 5.52016 15.3232 7.66149C15.3232 8.55623 15.1731 9.41078 14.8728 10.2251C14.5724 11.0395 14.1715 11.7478 13.6704 12.35L18 16.6795L16.6798 18ZM7.66162 13.444C9.27594 13.444 10.6432 12.8838 11.7635 11.7633C12.884 10.6431 13.4442 9.27578 13.4442 7.66149C13.4442 6.04719 12.884 4.67991 11.7635 3.55966C10.6432 2.43919 9.27594 1.87896 7.66162 1.87896C6.04729 1.87896 4.68 2.43919 3.55972 3.55966C2.43924 4.67991 1.87899 6.04719 1.87899 7.66149C1.87899 9.27578 2.43924 10.6431 3.55972 11.7633C4.68 12.8838 6.04729 13.444 7.66162 13.444Z" fill="#5F5F5F"/>
</svg>
