<svg width="24" height="24" viewBox="0 0 24 24" fill="none" xmlns="http://www.w3.org/2000/svg">
<path d="M0 23.1731V2.25969C0 1.62823 0.21875 1.09375 0.65625 0.65625C1.09375 0.21875 1.62823 0 2.25969 0H21.4903C22.1218 0 22.6562 0.21875 23.0938 0.65625C23.5312 1.09375 23.75 1.62823 23.75 2.25969V16.4903C23.75 17.1218 23.5312 17.6562 23.0938 18.0938C22.6562 18.5312 22.1218 18.75 21.4903 18.75H4.42312L0 23.1731ZM3.625 16.875H21.4903C21.5866 16.875 21.6747 16.8349 21.7547 16.7547C21.8349 16.6747 21.875 16.5866 21.875 16.4903V2.25969C21.875 2.16344 21.8349 2.07531 21.7547 1.99531C21.6747 1.9151 21.5866 1.875 21.4903 1.875H2.25969C2.16344 1.875 2.07531 1.9151 1.99531 1.99531C1.9151 2.07531 1.875 2.16344 1.875 2.25969V18.6059L3.625 16.875Z" fill="black"/>
</svg>
