<svg width="24" height="24" viewBox="0 0 24 24" fill="none" xmlns="http://www.w3.org/2000/svg">
<path d="M4.40375 18.4903C5.46625 17.702 6.62375 17.0794 7.87625 16.6225C9.12854 16.1658 10.4615 15.9375 11.875 15.9375C13.2885 15.9375 14.6215 16.1658 15.8738 16.6225C17.1263 17.0794 18.2838 17.702 19.3463 18.4903C20.1233 17.6361 20.7391 16.6474 21.1934 15.5241C21.6478 14.4007 21.875 13.1844 21.875 11.875C21.875 9.10417 20.901 6.74479 18.9531 4.79688C17.0052 2.84896 14.6458 1.875 11.875 1.875C9.10417 1.875 6.74479 2.84896 4.79688 4.79688C2.84896 6.74479 1.875 9.10417 1.875 11.875C1.875 13.1844 2.10219 14.4007 2.55656 15.5241C3.01094 16.6474 3.62667 17.6361 4.40375 18.4903ZM11.8753 12.8125C10.7341 12.8125 9.77167 12.4208 8.98812 11.6375C8.20438 10.854 7.8125 9.89156 7.8125 8.75031C7.8125 7.60906 8.20417 6.64667 8.9875 5.86312C9.77104 5.07937 10.7334 4.6875 11.8747 4.6875C13.0159 4.6875 13.9783 5.07917 14.7619 5.8625C15.5456 6.64604 15.9375 7.60844 15.9375 8.74969C15.9375 9.89094 15.5458 10.8533 14.7625 11.6369C13.979 12.4206 13.0166 12.8125 11.8753 12.8125ZM11.875 23.75C10.226 23.75 8.67917 23.4399 7.23438 22.8197C5.78958 22.1995 4.53281 21.3549 3.46406 20.2859C2.3951 19.2172 1.55052 17.9604 0.930313 16.5156C0.310104 15.0708 0 13.524 0 11.875C0 10.226 0.310104 8.67917 0.930313 7.23438C1.55052 5.78958 2.3951 4.53281 3.46406 3.46406C4.53281 2.3951 5.78958 1.55052 7.23438 0.930313C8.67917 0.310105 10.226 0 11.875 0C13.524 0 15.0708 0.310105 16.5156 0.930313C17.9604 1.55052 19.2172 2.3951 20.2859 3.46406C21.3549 4.53281 22.1995 5.78958 22.8197 7.23438C23.4399 8.67917 23.75 10.226 23.75 11.875C23.75 13.524 23.4399 15.0708 22.8197 16.5156C22.1995 17.9604 21.3549 19.2172 20.2859 20.2859C19.2172 21.3549 17.9604 22.1995 16.5156 22.8197C15.0708 23.4399 13.524 23.75 11.875 23.75C11.875 21.875 13.0031 21.875 14.0908 21.6935 15.1381 21.3306 16.1854 20.9675 17.1153 20.4599 17.9278 19.8078 17.1153 19.1795 16.1975 18.6899 15.1744 18.3391 14.151 17.988 13.0513 17.8125 11.875 17.8125 10.6987 17.8125 9.59698 17.9859 8.56969 18.3328 7.5424 18.6799 6.62656 19.1716 5.82219 19.8078 6.63469 20.4599 7.56458 20.9675 8.61187 21.3306 9.65917 21.6935 10.7469 21.875 11.875 21.875 11.875 10.9375 12.4969 10.9375 13.0169 10.7283 13.435 10.31 13.8533 9.89187 14.0625 9.37187 14.0625 8.75 14.0625 8.12813 13.8533 7.60813 13.435 7.19 13.0169 6.77167 12.4969 6.5625 11.875 6.5625 11.2531 6.5625 10.7331 6.77167 10.315 7.19 9.89667 7.60813 9.6875 8.12813 9.6875 8.75 9.6875 9.37187 9.89667 9.89187 10.315 10.31 10.7331 10.7283 11.2531 10.9375 11.875 10.9375Z" fill="black"/>
</svg>
