<svg width="24" height="24" viewBox="0 0 24 24" fill="none" xmlns="http://www.w3.org/2000/svg">
<path d="M6.65875 17.0913L14.6634 14.6634L17.0912 6.65875L9.08656 9.08656L6.65875 17.0913ZM11.8722 13.5097C11.4174 13.5097 11.0318 13.3504 10.7153 13.0319C10.3986 12.7135 10.2403 12.327 10.2403 11.8722C10.2403 11.4174 10.3996 11.0318 10.7181 10.7153C11.0365 10.3986 11.423 10.2403 11.8778 10.2403C12.3326 10.2403 12.7182 10.3996 13.0347 10.7181C13.3514 11.0365 13.5097 11.423 13.5097 11.8778C13.5097 12.3326 13.3504 12.7182 13.0319 13.0347C12.7135 13.3514 12.327 13.5097 11.8722 13.5097ZM11.8772 23.75C10.2347 23.75 8.69083 23.4383 7.24562 22.815C5.80042 22.1917 4.54333 21.3457 3.47437 20.2772C2.40542 19.2086 1.55906 17.9521 0.935312 16.5075C0.311771 15.0629 0 13.5195 0 11.8772C0 10.2347 0.311667 8.69083 0.935 7.24562C1.55833 5.80042 2.40427 4.54333 3.47281 3.47437C4.54135 2.40542 5.79792 1.55906 7.2425 0.935312C8.68708 0.311771 10.2305 0 11.8728 0C13.5153 0 15.0592 0.311666 16.5044 0.934999C17.9496 1.55833 19.2067 2.40427 20.2756 3.47281C21.3446 4.54135 22.1909 5.79792 22.8147 7.2425C23.4382 8.68708 23.75 10.2305 23.75 11.8728C23.75 13.5153 23.4383 15.0592 22.815 16.5044C22.1917 17.9496 21.3457 19.2067 20.2772 20.2756C19.2086 21.3446 17.9521 22.1909 16.5075 22.8147C15.0629 23.4382 13.5195 23.75 11.8772 23.75ZM11.875 21.875C14.6537 21.875 17.0151 20.903 18.9591 18.9591C20.903 17.0151 21.875 14.6537 21.875 11.875C21.875 9.09625 20.903 6.7349 18.9591 4.79094C17.0151 2.84698 14.6537 1.875 11.875 1.875C9.09625 1.875 6.7349 2.84698 4.79094 4.79094C2.84698 6.7349 1.875 9.09625 1.875 11.875C1.875 14.6537 2.84698 17.0151 4.79094 18.9591C6.7349 20.903 9.09625 21.875 11.875 21.875Z" fill="black"/>
</svg>
