<svg width="167" height="72" viewBox="0 0 167 72" fill="none" xmlns="http://www.w3.org/2000/svg">
<path d="M167 54.8468C167 54.8468 161.721 59.8521 157.996 62.0023C154.271 64.1526 139.167 71.003 125.25 71.5601C111.333 72.1172 97.4167 69.7174 83.5 64.1462C69.5833 58.5751 61.4189 51.9755 47.5022 50.047C33.5856 48.1185 15.9557 51.7612 6.95833 58.4037L6.43769e-07 64.2748L5.65518e-06 6.95097C5.99114e-06 3.10799 3.11536 -0.0073538 6.95833 -0.00735347C13.9167 -0.00735286 27.8333 -0.00735164 41.75 -0.00735043C55.6667 -0.00734921 69.5833 -0.00734799 83.5 -0.00734678C97.4167 -0.00734556 111.333 -0.00734434 125.25 -0.00734313C139.167 -0.00734191 153.083 -0.00734069 160.042 -0.00734009C163.885 -0.00733975 167 3.10801 167 6.95099L167 54.8468Z" fill="#C4000E" fill-opacity="0.3"/>
</svg>
