<svg width="545" height="72" viewBox="0 0 545 72" fill="none" xmlns="http://www.w3.org/2000/svg">
<path d="M545 54.8546C545 54.8546 527.774 59.8599 515.616 62.0101C503.459 64.1604 454.167 71.0108 408.75 71.5679C363.333 72.125 317.917 69.7252 272.5 64.154C227.083 58.5829 200.439 51.9833 155.022 50.0548C109.606 48.1263 52.0709 51.769 22.7083 58.4115L6.43769e-07 64.2826L6.26349e-06 0.000425377L22.7083 0.000427362C45.4167 0.000429347 90.8333 0.000433318 136.25 0.000437288C181.667 0.000441259 227.083 0.000445229 272.5 0.0004492C317.917 0.00045317 363.333 0.000457141 408.75 0.000461111C454.167 0.000465082 499.583 0.000469052 522.292 0.000471037L545 0.000473022L545 54.8546Z" fill="#FFE8A9"/>
</svg>
