<svg width="12" height="14" viewBox="0 0 12 14" fill="none" xmlns="http://www.w3.org/2000/svg">
<path d="M3.79483 1V0H7.5385V1H3.79483ZM5.16667 8.37183H6.16667V4.62817H5.16667V8.37183ZM5.66667 13.5C4.88722 13.5 4.15389 13.3513 3.46667 13.0538C2.77944 12.7564 2.17861 12.3504 1.66417 11.8358C1.14961 11.3214 0.743611 10.7206 0.446167 10.0333C0.148722 9.34611 0 8.61278 0 7.83333C0 7.05389 0.148722 6.32056 0.446167 5.63333C0.743611 4.94611 1.14961 4.34528 1.66417 3.83083C2.17861 3.31628 2.77944 2.91028 3.46667 2.61283C4.15389 2.31539 4.88722 2.16667 5.66667 2.16667C6.33422 2.16667 6.97717 2.27994 7.5955 2.5065C8.21383 2.73294 8.788 3.05728 9.318 3.4795L10.1487 2.64883L10.8512 3.35133L10.0205 4.182C10.4427 4.712 10.7671 5.28617 10.9935 5.9045C11.2201 6.52283 11.3333 7.16578 11.3333 7.83333C11.3333 8.61278 11.1846 9.34611 10.8872 10.0333C10.5897 10.7206 10.1837 11.3214 9.66917 11.8358C9.15472 12.3504 8.55389 12.7564 7.86667 13.0538C7.17944 13.3513 6.44611 13.5 5.66667 13.5ZM5.66667 12.5C6.95556 12.5 8.05556 12.0444 8.96667 11.1333C9.87778 10.2222 10.3333 9.12222 10.3333 7.83333C10.3333 6.54444 9.87778 5.44444 8.96667 4.53333C8.05556 3.62222 6.95556 3.16667 5.66667 3.16667C4.37778 3.16667 3.27778 3.62222 2.36667 4.53333C1.45556 5.44444 1 6.54444 1 7.83333C1 9.12222 1.45556 10.2222 2.36667 11.1333C3.27778 12.0444 4.37778 12.5 5.66667 12.5Z" fill="#5F5F5F"/>
</svg>
