<svg width="40" height="40" viewBox="0 0 40 40" fill="none" xmlns="http://www.w3.org/2000/svg">
<rect x="0.5" y="0.5" width="39" height="39" rx="19.5" stroke="#5F5F5F"/>
<path d="M22.1818 17.9V16.2C22.7818 15.9667 23.3955 15.7917 24.0227 15.675C24.65 15.5583 25.3091 15.5 26 15.5C26.4727 15.5 26.9364 15.5333 27.3909 15.6C27.8455 15.6667 28.2909 15.75 28.7273 15.85V17.45C28.2909 17.3 27.85 17.1875 27.4045 17.1125C26.9591 17.0375 26.4909 17 26 17C25.3091 17 24.6455 17.0792 24.0091 17.2375C23.3727 17.3958 22.7636 17.6167 22.1818 17.9ZM22.1818 23.4V21.7C22.7818 21.4667 23.3955 21.2917 24.0227 21.175C24.65 21.0583 25.3091 21 26 21C26.4727 21 26.9364 21.0333 27.3909 21.1C27.8455 21.1667 28.2909 21.25 28.7273 21.35V22.95C28.2909 22.8 27.85 22.6875 27.4045 22.6125C26.9591 22.5375 26.4909 22.5 26 22.5C25.3091 22.5 24.6455 22.575 24.0091 22.725C23.3727 22.875 22.7636 23.1 22.1818 23.4ZM22.1818 20.65V18.95C22.7818 18.7167 23.3955 18.5417 24.0227 18.425C24.65 18.3083 25.3091 18.25 26 18.25C26.4727 18.25 26.9364 18.2833 27.3909 18.35C27.8455 18.4167 28.2909 18.5 28.7273 18.6V20.2C28.2909 20.05 27.85 19.9375 27.4045 19.8625C26.9591 19.7875 26.4909 19.75 26 19.75C25.3091 19.75 24.6455 19.8292 24.0091 19.9875C23.3727 20.1458 22.7636 20.3667 22.1818 20.65ZM14 24C14.8545 24 15.6864 24.0875 16.4955 24.2625C17.3045 24.4375 18.1091 24.7 18.9091 25.05V15.2C18.1636 14.8 17.3727 14.5 16.5364 14.3C15.7 14.1 14.8545 14 14 14C13.3455 14 12.6955 14.0583 12.05 14.175C11.4045 14.2917 10.7818 14.4667 10.1818 14.7V24.6C10.8182 24.4 11.45 24.25 12.0773 24.15C12.7045 24.05 13.3455 24 14 24ZM21.0909 25.05C21.8909 24.7 22.6955 24.4375 23.5045 24.2625C24.3136 24.0875 25.1455 24 26 24C26.6545 24 27.2955 24.05 27.9227 24.15C28.55 24.25 29.1818 24.4 29.8182 24.6V14.7C29.2182 14.4667 28.5955 14.2917 27.95 14.175C27.3045 14.0583 26.6545 14 26 14C25.1455 14 24.3 14.1 23.4636 14.3C22.6273 14.5 21.8364 14.8 21.0909 15.2V25.05ZM20 28C19.1273 27.3667 18.1818 26.875 17.1636 26.525C16.1455 26.175 15.0909 26 14 26C13.2364 26 12.4864 26.0917 11.75 26.275C11.0136 26.4583 10.3091 26.7167 9.63636 27.05C9.25455 27.2333 8.88636 27.225 8.53182 27.025C8.17727 26.825 8 26.5333 8 26.15V14.1C8 13.9167 8.05 13.7417 8.15 13.575C8.25 13.4083 8.4 13.2833 8.6 13.2C9.43636 12.8 10.3091 12.5 11.2182 12.3C12.1273 12.1 13.0545 12 14 12C15.0545 12 16.0864 12.125 17.0955 12.375C18.1045 12.625 19.0727 13 20 13.5C20.9273 13 21.8955 12.625 22.9045 12.375C23.9136 12.125 24.9455 12 26 12C26.9455 12 27.8727 12.1 28.7818 12.3C29.6909 12.5 30.5636 12.8 31.4 13.2C31.6 13.2833 31.75 13.4083 31.85 13.575C31.95 13.7417 32 13.9167 32 14.1V26.15C32 26.5333 31.8227 26.825 31.4682 27.025C31.1136 27.225 30.7455 27.2333 30.3636 27.05C29.6909 26.7167 28.9864 26.4583 28.25 26.275C27.5136 26.0917 26.7636 26 26 26C24.9091 26 23.8545 26.175 22.8364 26.525C21.8182 26.875 20.8727 27.3667 20 28Z" fill="#5F5F5F"/>
</svg>
