<svg width="13" height="13" viewBox="0 0 13 13" fill="none" xmlns="http://www.w3.org/2000/svg">
<path d="M6.33333 12.6667C5.465 12.6667 4.64556 12.5002 3.875 12.1673C3.10444 11.8344 2.43244 11.3812 1.859 10.8077C1.28544 10.2342 0.832222 9.56222 0.499333 8.79167C0.166445 8.02111 0 7.20167 0 6.33333C0 5.45811 0.166445 4.63694 0.499333 3.86983C0.832222 3.10272 1.28544 2.43244 1.859 1.859C2.43244 1.28544 3.10444 0.832223 3.875 0.499334C4.64556 0.166445 5.465 0 6.33333 0C7.20856 0 8.02972 0.166445 8.79683 0.499334C9.56394 0.832223 10.2342 1.28544 10.8077 1.859C11.3812 2.43244 11.8344 3.10272 12.1673 3.86983C12.5002 4.63694 12.6667 5.45811 12.6667 6.33333C12.6667 7.20167 12.5002 8.02111 12.1673 8.79167C11.8344 9.56222 11.3812 10.2342 10.8077 10.8077C10.2342 11.3812 9.56394 11.8344 8.79683 12.1673C8.02972 12.5002 7.20856 12.6667 6.33333 12.6667ZM6.33333 11.6525C6.67356 11.2013 6.95989 10.7462 7.19233 10.2872C7.42478 9.82817 7.61411 9.32645 7.76033 8.782H4.90633C5.06111 9.34356 5.25261 9.85383 5.48083 10.3128C5.70894 10.7718 5.99311 11.2184 6.33333 11.6525ZM5.04233 11.4692C4.78678 11.1025 4.55728 10.6857 4.35383 10.2187C4.15039 9.75156 3.99228 9.27267 3.8795 8.782H1.618C1.97011 9.47433 2.44233 10.056 3.03467 10.527C3.627 10.9979 4.29622 11.3119 5.04233 11.4692ZM7.62433 11.4692C8.37045 11.3119 9.03967 10.9979 9.632 10.527C10.2243 10.056 10.6966 9.47433 11.0487 8.782H8.78717C8.65294 9.27689 8.48411 9.75789 8.28067 10.225C8.07733 10.6921 7.85856 11.1068 7.62433 11.4692ZM1.19867 7.782H3.677C3.63511 7.53422 3.60472 7.29128 3.58583 7.05317C3.56706 6.81517 3.55767 6.57522 3.55767 6.33333C3.55767 6.09144 3.56706 5.8515 3.58583 5.6135C3.60472 5.37539 3.63511 5.13244 3.677 4.88467H1.19867C1.13456 5.11111 1.08544 5.34656 1.05133 5.591C1.01711 5.83544 1 6.08289 1 6.33333C1 6.58378 1.01711 6.83122 1.05133 7.07567C1.08544 7.32011 1.13456 7.55556 1.19867 7.782ZM4.67683 7.782H7.98983C8.03161 7.53422 8.06194 7.29344 8.08083 7.05967C8.09961 6.82589 8.109 6.58378 8.109 6.33333C8.109 6.08289 8.09961 5.84078 8.08083 5.607C8.06194 5.37322 8.03161 5.13244 7.98983 4.88467H4.67683C4.63506 5.13244 4.60472 5.37322 4.58583 5.607C4.56706 5.84078 4.55767 6.08289 4.55767 6.33333C4.55767 6.58378 4.56706 6.82589 4.58583 7.05967C4.60472 7.29344 4.63506 7.53422 4.67683 7.782ZM8.98967 7.782H11.468C11.5321 7.55556 11.5812 7.32011 11.6153 7.07567C11.6496 6.83122 11.6667 6.58378 11.6667 6.33333C11.6667 6.08289 11.6496 5.83544 11.6153 5.591C11.5812 5.34656 11.5321 5.11111 11.468 4.88467H8.98967C9.03156 5.13244 9.06194 5.37539 9.08083 5.6135C9.09961 5.8515 9.109 6.09144 9.109 6.33333C9.109 6.57522 9.09961 6.81517 9.08083 7.05317C9.06194 7.29128 9.03156 7.53422 8.98967 7.782ZM8.78717 3.88467H11.0487C10.6923 3.18378 10.2233 2.60211 9.64167 2.13967C9.06 1.67733 8.38756 1.36111 7.62433 1.191C7.87989 1.579 8.10722 2.00339 8.30633 2.46417C8.50556 2.92483 8.66583 3.39833 8.78717 3.88467ZM4.90633 3.88467H7.76033C7.60556 3.32733 7.41089 2.81383 7.17633 2.34417C6.94167 1.8745 6.66067 1.43117 6.33333 1.01417C6.006 1.43117 5.725 1.8745 5.49033 2.34417C5.25578 2.81383 5.06111 3.32733 4.90633 3.88467ZM1.618 3.88467H3.8795C4.00083 3.39833 4.16111 2.92483 4.36033 2.46417C4.55944 2.00339 4.78678 1.579 5.04233 1.191C4.27478 1.36111 3.60128 1.67844 3.02183 2.143C2.44228 2.60744 1.97433 3.188 1.618 3.88467Z" fill="#5F5F5F"/>
</svg>
