<svg width="40" height="40" viewBox="0 0 40 40" fill="none" xmlns="http://www.w3.org/2000/svg">
<rect x="0.5" y="0.5" width="39" height="39" rx="19.5" stroke="#E1E1E1"/>
<path d="M8 26V24.425C8 23.7083 8.36667 23.125 9.1 22.675C9.83333 22.225 10.8 22 12 22C12.2167 22 12.425 22.0042 12.625 22.0125C12.825 22.0208 13.0167 22.0417 13.2 22.075C12.9667 22.425 12.7917 22.7917 12.675 23.175C12.5583 23.5583 12.5 23.9583 12.5 24.375V26H8ZM14 26V24.375C14 23.8417 14.1458 23.3542 14.4375 22.9125C14.7292 22.4708 15.1417 22.0833 15.675 21.75C16.2083 21.4167 16.8458 21.1667 17.5875 21C18.3292 20.8333 19.1333 20.75 20 20.75C20.8833 20.75 21.6958 20.8333 22.4375 21C23.1792 21.1667 23.8167 21.4167 24.35 21.75C24.8833 22.0833 25.2917 22.4708 25.575 22.9125C25.8583 23.3542 26 23.8417 26 24.375V26H14ZM27.5 26V24.375C27.5 23.9417 27.4458 23.5333 27.3375 23.15C27.2292 22.7667 27.0667 22.4083 26.85 22.075C27.0333 22.0417 27.2208 22.0208 27.4125 22.0125C27.6042 22.0042 27.8 22 28 22C29.2 22 30.1667 22.2208 30.9 22.6625C31.6333 23.1042 32 23.6917 32 24.425V26H27.5ZM16.125 24H23.9C23.7333 23.6667 23.2708 23.375 22.5125 23.125C21.7542 22.875 20.9167 22.75 20 22.75C19.0833 22.75 18.2458 22.875 17.4875 23.125C16.7292 23.375 16.275 23.6667 16.125 24ZM12 21C11.45 21 10.9792 20.8042 10.5875 20.4125C10.1958 20.0208 10 19.55 10 19C10 18.4333 10.1958 17.9583 10.5875 17.575C10.9792 17.1917 11.45 17 12 17C12.5667 17 13.0417 17.1917 13.425 17.575C13.8083 17.9583 14 18.4333 14 19C14 19.55 13.8083 20.0208 13.425 20.4125C13.0417 20.8042 12.5667 21 12 21ZM28 21C27.45 21 26.9792 20.8042 26.5875 20.4125C26.1958 20.0208 26 19.55 26 19C26 18.4333 26.1958 17.9583 26.5875 17.575C26.9792 17.1917 27.45 17 28 17C28.5667 17 29.0417 17.1917 29.425 17.575C29.8083 17.9583 30 18.4333 30 19C30 19.55 29.8083 20.0208 29.425 20.4125C29.0417 20.8042 28.5667 21 28 21ZM20 20C19.1667 20 18.4583 19.7083 17.875 19.125C17.2917 18.5417 17 17.8333 17 17C17 16.15 17.2917 15.4375 17.875 14.8625C18.4583 14.2875 19.1667 14 20 14C20.85 14 21.5625 14.2875 22.1375 14.8625C22.7125 15.4375 23 16.15 23 17C23 17.8333 22.7125 18.5417 22.1375 19.125C21.5625 19.7083 20.85 20 20 20ZM20 18C20.2833 18 20.5208 17.9042 20.7125 17.7125C20.9042 17.5208 21 17.2833 21 17C21 16.7167 20.9042 16.4792 20.7125 16.2875C20.5208 16.0958 20.2833 16 20 16C19.7167 16 19.4792 16.0958 19.2875 16.2875C19.0958 16.4792 19 16.7167 19 17C19 17.2833 19.0958 17.5208 19.2875 17.7125C19.4792 17.9042 19.7167 18 20 18Z" fill="#E1E1E1"/>
</svg>
