<svg width="48" height="48" viewBox="0 0 48 48" fill="none" xmlns="http://www.w3.org/2000/svg">
<path d="M9.15503 35.9067C11.1763 34.3611 13.4353 33.1424 15.9321 32.2507C18.429 31.3589 21.0447 30.9131 23.7793 30.9131C26.5139 30.9131 29.1296 31.3589 31.6265 32.2507C34.1233 33.1424 36.3823 34.3611 38.4036 35.9067C39.7907 34.2818 40.8707 32.4389 41.6435 30.3781C42.4163 28.3172 42.8027 26.1176 42.8027 23.7793C42.8027 18.5082 40.9499 14.0199 37.2443 10.3143C33.5387 6.60866 29.0504 4.75586 23.7793 4.75586C18.5082 4.75586 14.0199 6.60866 10.3143 10.3143C6.60866 14.0199 4.75586 18.5082 4.75586 23.7793C4.75586 26.1176 5.14227 28.3172 5.9151 30.3781C6.68793 32.4389 7.7679 34.2818 9.15503 35.9067ZM23.7793 26.1572C21.441 26.1572 19.4693 25.3547 17.8642 23.7496C16.2591 22.1445 15.4565 20.1728 15.4565 17.8345C15.4565 15.4962 16.2591 13.5245 17.8642 11.9194C19.4693 10.3143 21.441 9.51172 23.7793 9.51172C26.1176 9.51172 28.0893 10.3143 29.6944 11.9194C31.2995 13.5245 32.1021 15.4962 32.1021 17.8345C32.1021 20.1728 31.2995 22.1445 29.6944 23.7496C28.0893 25.3547 26.1176 26.1572 23.7793 26.1572ZM23.7793 47.5586C20.4898 47.5586 17.3985 46.9344 14.5054 45.686C11.6122 44.4376 9.09558 42.7433 6.95544 40.6031C4.81531 38.463 3.12103 35.9464 1.87262 33.0532C0.624207 30.1601 0 27.0688 0 23.7793C0 20.4898 0.624207 17.3985 1.87262 14.5054C3.12103 11.6122 4.81531 9.09558 6.95544 6.95544C9.09558 4.81531 11.6122 3.12103 14.5054 1.87262C17.3985 0.624207 20.4898 0 23.7793 0C27.0688 0 30.1601 0.624207 33.0532 1.87262C35.9464 3.12103 38.463 4.81531 40.6031 6.95544C42.7433 9.09558 44.4376 11.6122 45.686 14.5054C46.9344 17.3985 47.5586 20.4898 47.5586 23.7793C47.5586 27.0688 46.9344 30.1601 45.686 33.0532C44.4376 35.9464 42.7433 38.463 40.6031 40.6031C38.463 42.7433 35.9464 44.4376 33.0532 45.686C30.1601 46.9344 27.0688 47.5586 23.7793 47.5586Z" fill="#5F5F5F"/>
</svg>
