<svg width="40" height="40" viewBox="0 0 40 40" fill="none" xmlns="http://www.w3.org/2000/svg">
<rect x="0.5" y="0.5" width="39" height="39" rx="19.5" stroke="#E1E1E1"/>
<path d="M30 30L26 26H16C15.45 26 14.9792 25.8042 14.5875 25.4125C14.1958 25.0208 14 24.55 14 24V23H25C25.55 23 26.0208 22.8042 26.4125 22.4125C26.8042 22.0208 27 21.55 27 21V14H28C28.55 14 29.0208 14.1958 29.4125 14.5875C29.8042 14.9792 30 15.45 30 16V30ZM12 20.175L13.175 19H23V12H12V20.175ZM10 25V12C10 11.45 10.1958 10.9792 10.5875 10.5875C10.9792 10.1958 11.45 10 12 10H23C23.55 10 24.0208 10.1958 24.4125 10.5875C24.8042 10.9792 25 11.45 25 12V19C25 19.55 24.8042 20.0208 24.4125 20.4125C24.0208 20.8042 23.55 21 23 21H14L10 25Z" fill="#E1E1E1"/>
</svg>
