<svg width="15" height="15" viewBox="0 0 15 15" fill="none" xmlns="http://www.w3.org/2000/svg">
<path d="M1.50646 14.1667C1.08549 14.1667 0.729167 14.0208 0.4375 13.7292C0.145833 13.4375 0 13.0812 0 12.6602V1.50646C0 1.08549 0.145833 0.729167 0.4375 0.4375C0.729167 0.145833 1.08549 0 1.50646 0H12.6602C13.0812 0 13.4375 0.145833 13.7292 0.4375C14.0208 0.729167 14.1667 1.08549 14.1667 1.50646V12.6602C14.1667 13.0812 14.0208 13.4375 13.7292 13.7292C13.4375 14.0208 13.0812 14.1667 12.6602 14.1667H1.50646ZM1.50646 12.9167H12.6602C12.7244 12.9167 12.7831 12.8899 12.8365 12.8365C12.8899 12.7831 12.9167 12.7244 12.9167 12.6602V1.50646C12.9167 1.44229 12.8899 1.38354 12.8365 1.33021C12.7831 1.27674 12.7244 1.25 12.6602 1.25H1.50646C1.44229 1.25 1.38354 1.27674 1.33021 1.33021C1.27674 1.38354 1.25 1.44229 1.25 1.50646V12.6602C1.25 12.7244 1.27674 12.7831 1.33021 12.8365C1.38354 12.8899 1.44229 12.9167 1.50646 12.9167ZM2.70833 11.0417H11.5223L8.78208 7.38792L6.44229 10.4327L4.77563 8.30125L2.70833 11.0417Z" fill="black"/>
</svg>
