<svg width="40" height="40" viewBox="0 0 40 40" fill="none" xmlns="http://www.w3.org/2000/svg">
<rect x="0.5" y="0.5" width="39" height="39" rx="19.5" stroke="#E1E1E1"/>
<path d="M18 20C16.9 20 15.9583 19.6083 15.175 18.825C14.3917 18.0417 14 17.1 14 16C14 14.9 14.3917 13.9583 15.175 13.175C15.9583 12.3917 16.9 12 18 12C19.1 12 20.0417 12.3917 20.825 13.175C21.6083 13.9583 22 14.9 22 16C22 17.1 21.6083 18.0417 20.825 18.825C20.0417 19.6083 19.1 20 18 20ZM10 28V25.2C10 24.65 10.1417 24.1333 10.425 23.65C10.7083 23.1667 11.1 22.8 11.6 22.55C12.45 22.1167 13.4083 21.75 14.475 21.45C15.5417 21.15 16.7167 21 18 21H18.35C18.45 21 18.55 21.0167 18.65 21.05C18.5167 21.35 18.4042 21.6625 18.3125 21.9875C18.2208 22.3125 18.15 22.65 18.1 23H18C16.8167 23 15.7542 23.15 14.8125 23.45C13.8708 23.75 13.1 24.05 12.5 24.35C12.35 24.4333 12.2292 24.55 12.1375 24.7C12.0458 24.85 12 25.0167 12 25.2V26H18.3C18.4 26.35 18.5333 26.6958 18.7 27.0375C18.8667 27.3792 19.05 27.7 19.25 28H10ZM24 29L23.7 27.5C23.5 27.4167 23.3125 27.3292 23.1375 27.2375C22.9625 27.1458 22.7833 27.0333 22.6 26.9L21.15 27.35L20.15 25.65L21.3 24.65C21.2667 24.4167 21.25 24.2 21.25 24C21.25 23.8 21.2667 23.5833 21.3 23.35L20.15 22.35L21.15 20.65L22.6 21.1C22.7833 20.9667 22.9625 20.8542 23.1375 20.7625C23.3125 20.6708 23.5 20.5833 23.7 20.5L24 19H26L26.3 20.5C26.5 20.5833 26.6875 20.675 26.8625 20.775C27.0375 20.875 27.2167 21 27.4 21.15L28.85 20.65L29.85 22.4L28.7 23.4C28.7333 23.6 28.75 23.8083 28.75 24.025C28.75 24.2417 28.7333 24.45 28.7 24.65L29.85 25.65L28.85 27.35L27.4 26.9C27.2167 27.0333 27.0375 27.1458 26.8625 27.2375C26.6875 27.3292 26.5 27.4167 26.3 27.5L26 29H24ZM25 26C25.55 26 26.0208 25.8042 26.4125 25.4125C26.8042 25.0208 27 24.55 27 24C27 23.45 26.8042 22.9792 26.4125 22.5875C26.0208 22.1958 25.55 22 25 22C24.45 22 23.9792 22.1958 23.5875 22.5875C23.1958 22.9792 23 23.45 23 24C23 24.55 23.1958 25.0208 23.5875 25.4125C23.9792 25.8042 24.45 26 25 26ZM18 18C18.55 18 19.0208 17.8042 19.4125 17.4125C19.8042 17.0208 20 16.55 20 16C20 15.45 19.8042 14.9792 19.4125 14.5875C19.0208 14.1958 18.55 14 18 14C17.45 14 16.9792 14.1958 16.5875 14.5875C16.1958 14.9792 16 15.45 16 16C16 16.55 16.1958 17.0208 16.5875 17.4125C16.9792 17.8042 17.45 18 18 18Z" fill="#E1E1E1"/>
</svg>
