<svg width="40" height="40" viewBox="0 0 40 40" fill="none" xmlns="http://www.w3.org/2000/svg">
<rect x="0.5" y="0.5" width="39" height="39" rx="19.5" stroke="#5F5F5F"/>
<path d="M12 28.8421V25.8947C12 25.2982 12.1535 24.75 12.4605 24.25C12.7675 23.75 13.1754 23.3684 13.6842 23.1053C14.7719 22.5614 15.8772 22.1535 17 21.8816C18.1228 21.6096 19.2632 21.4737 20.4211 21.4737C21.0702 21.4737 21.7105 21.5132 22.3421 21.5921C22.9737 21.6711 23.6053 21.7982 24.2368 21.9737L22.4737 23.7632C22.1228 23.7105 21.7807 23.6667 21.4474 23.6316C21.114 23.5965 20.7719 23.5789 20.4211 23.5789C19.4386 23.5789 18.4649 23.6974 17.5 23.9342C16.5351 24.1711 15.5789 24.5263 14.6316 25C14.4737 25.0877 14.3465 25.2105 14.25 25.3684C14.1535 25.5263 14.1053 25.7018 14.1053 25.8947V26.7368H20.4211V28.8421H12ZM22.5263 29.8947V26.6579L28.3421 20.8684C28.5 20.7105 28.6754 20.5965 28.8684 20.5263C29.0614 20.4561 29.2544 20.4211 29.4474 20.4211C29.6579 20.4211 29.8596 20.4605 30.0526 20.5395C30.2456 20.6184 30.4211 20.7368 30.5789 20.8947L31.5526 21.8684C31.693 22.0263 31.8026 22.2018 31.8816 22.3947C31.9605 22.5877 32 22.7807 32 22.9737C32 23.1667 31.9649 23.364 31.8947 23.5658C31.8246 23.7675 31.7105 23.9474 31.5526 24.1053L25.7632 29.8947H22.5263ZM24.1053 28.3158H25.1053L28.2895 25.1053L27.8158 24.6053L27.3158 24.1316L24.1053 27.3158V28.3158ZM27.8158 24.6053L27.3158 24.1316L28.2895 25.1053L27.8158 24.6053ZM20.4211 20.4211C19.2632 20.4211 18.2719 20.0088 17.4474 19.1842C16.6228 18.3596 16.2105 17.3684 16.2105 16.2105C16.2105 15.0526 16.6228 14.0614 17.4474 13.2368C18.2719 12.4123 19.2632 12 20.4211 12C21.5789 12 22.5702 12.4123 23.3947 13.2368C24.2193 14.0614 24.6316 15.0526 24.6316 16.2105C24.6316 17.3684 24.2193 18.3596 23.3947 19.1842C22.5702 20.0088 21.5789 20.4211 20.4211 20.4211ZM20.4211 18.3158C21 18.3158 21.4956 18.1096 21.9079 17.6974C22.3202 17.2851 22.5263 16.7895 22.5263 16.2105C22.5263 15.6316 22.3202 15.136 21.9079 14.7237C21.4956 14.3114 21 14.1053 20.4211 14.1053C19.8421 14.1053 19.3465 14.3114 18.9342 14.7237C18.5219 15.136 18.3158 15.6316 18.3158 16.2105C18.3158 16.7895 18.5219 17.2851 18.9342 17.6974C19.3465 18.1096 19.8421 18.3158 20.4211 18.3158Z" fill="#5F5F5F"/>
</svg>
