<svg width="19" height="19" viewBox="0 0 19 19" fill="none" xmlns="http://www.w3.org/2000/svg">
<path d="M3.75 11.25H15.25V9.75H3.75V11.25ZM3.75 8.25H15.25V6.75H3.75V8.25ZM3.75 5.25H15.25V3.75H3.75V5.25ZM19 18.5385L15.4615 15H1.80775C1.30258 15 0.875 14.825 0.525 14.475C0.175 14.125 0 13.6974 0 13.1923V1.80775C0 1.30258 0.175 0.875 0.525 0.525C0.875 0.175 1.30258 0 1.80775 0H17.1923C17.6974 0 18.125 0.175 18.475 0.525C18.825 0.875 19 1.30258 19 1.80775V18.5385ZM1.80775 13.5H16.1L17.5 14.8848V1.80775C17.5 1.73075 17.4679 1.66025 17.4038 1.59625C17.3398 1.53208 17.2693 1.5 17.1923 1.5H1.80775C1.73075 1.5 1.66025 1.53208 1.59625 1.59625C1.53208 1.66025 1.5 1.73075 1.5 1.80775V13.1923C1.5 13.2692 1.53208 13.3398 1.59625 13.4038C1.66025 13.4679 1.73075 13.5 1.80775 13.5Z" fill="black"/>
</svg>
