<svg width="40" height="40" viewBox="0 0 40 40" fill="none" xmlns="http://www.w3.org/2000/svg">
<rect x="0.5" y="0.5" width="39" height="39" rx="19.5" stroke="#5F5F5F"/>
<path d="M18.9737 28.7713C19.7565 27.2896 20.772 26.2861 22.0203 25.7611C23.2685 25.2361 24.3407 24.9737 25.2368 24.9737C25.6202 24.9737 25.9896 25.0037 26.3453 25.0637C26.7007 25.1239 27.0492 25.2032 27.3908 25.3016C27.832 24.6688 28.1974 23.9411 28.4868 23.1184C28.7763 22.296 28.9211 21.4232 28.9211 20.5C28.9211 18.1491 28.1053 16.1579 26.4737 14.5263C24.8421 12.8947 22.8509 12.0789 20.5 12.0789C18.1491 12.0789 16.1579 12.8947 14.5263 14.5263C12.8947 16.1579 12.0789 18.1491 12.0789 20.5C12.0789 21.3502 12.1967 22.1568 12.4321 22.92C12.6677 23.6832 13.0008 24.3853 13.4313 25.0263C14.1236 24.6553 14.8304 24.3782 15.5516 24.1953C16.273 24.0125 17.0149 23.9211 17.7774 23.9211C18.2781 23.9211 18.7618 23.9625 19.2287 24.0455C19.6957 24.1285 20.1228 24.2287 20.51 24.3461C20.2077 24.5162 19.9257 24.7046 19.6639 24.9111C19.4022 25.1174 19.1505 25.3413 18.9089 25.5829C18.7389 25.5478 18.5557 25.5253 18.3592 25.5153C18.1629 25.5051 17.9689 25.5 17.7774 25.5C17.1954 25.5 16.6181 25.5682 16.0453 25.7045C15.4726 25.8408 14.9319 26.0453 14.4232 26.3179C15.0318 26.967 15.7247 27.4987 16.5021 27.9129C17.2795 28.3273 18.1033 28.6134 18.9737 28.7713ZM20.5018 30.5C19.1187 30.5 17.8186 30.2375 16.6016 29.7126C15.3846 29.1877 14.326 28.4754 13.4258 27.5755C12.5256 26.6757 11.8129 25.6175 11.2876 24.4011C10.7625 23.1846 10.5 21.8848 10.5 20.5018C10.5 19.1187 10.7625 17.8186 11.2874 16.6016C11.8123 15.3846 12.5246 14.326 13.4245 13.4258C14.3243 12.5256 15.3825 11.8129 16.5989 11.2876C17.8154 10.7625 19.1152 10.5 20.4982 10.5C21.8813 10.5 23.1814 10.7625 24.3984 11.2874C25.6154 11.8123 26.674 12.5246 27.5742 13.4245C28.4744 14.3243 29.1871 15.3825 29.7124 16.5989C30.2375 17.8154 30.5 19.1152 30.5 20.4982C30.5 21.8813 30.2375 23.1814 29.7126 24.3984C29.1877 25.6154 28.4754 26.674 27.5755 27.5742C26.6757 28.4744 25.6175 29.1871 24.4011 29.7124C23.1846 30.2375 21.8848 30.5 20.5018 30.5ZM17.8684 21.8158C16.9184 21.8158 16.1107 21.4832 15.4453 20.8179C14.78 20.1525 14.4474 19.3447 14.4474 18.3947C14.4474 17.4447 14.78 16.637 15.4453 15.9716C16.1107 15.3063 16.9184 14.9737 17.8684 14.9737C18.8184 14.9737 19.6261 15.3063 20.2916 15.9716C20.9568 16.637 21.2895 17.4447 21.2895 18.3947C21.2895 19.3447 20.9568 20.1525 20.2916 20.8179C19.6261 21.4832 18.8184 21.8158 17.8684 21.8158ZM17.8684 20.2368C18.3746 20.2368 18.8081 20.0563 19.1689 19.6953C19.53 19.3344 19.7105 18.9009 19.7105 18.3947C19.7105 17.8886 19.53 17.4551 19.1689 17.0942C18.8081 16.7332 18.3746 16.5526 17.8684 16.5526C17.3623 16.5526 16.9288 16.7332 16.5679 17.0942C16.2068 17.4551 16.0263 17.8886 16.0263 18.3947C16.0263 18.9009 16.2068 19.3344 16.5679 19.6953C16.9288 20.0563 17.3623 20.2368 17.8684 20.2368ZM25.2368 23.0708C24.517 23.0708 23.9086 22.8223 23.4116 22.3253C22.9146 21.8282 22.6661 21.2198 22.6661 20.5C22.6661 19.7802 22.9146 19.1718 23.4116 18.6747C23.9086 18.1777 24.517 17.9292 25.2368 17.9292C25.9567 17.9292 26.5651 18.1777 27.0621 18.6747C27.5591 19.1718 27.8076 19.7802 27.8076 20.5C27.8076 21.2198 27.5591 21.8282 27.0621 22.3253C26.5651 22.8223 25.9567 23.0708 25.2368 23.0708Z" fill="#5F5F5F"/>
</svg>
