<svg width="40" height="40" viewBox="0 0 40 40" fill="none" xmlns="http://www.w3.org/2000/svg">
<rect x="0.5" y="0.5" width="39" height="39" rx="19.5" stroke="#5F5F5F"/>
<path d="M24.5367 17.7644C24.119 17.7644 23.7639 17.6182 23.4715 17.3258C23.1791 17.0334 23.0329 16.6784 23.0329 16.2607C23.0329 15.8429 23.1791 15.4879 23.4715 15.1955C23.7639 14.9031 24.119 14.7569 24.5367 14.7569C24.9544 14.7569 25.3094 14.9031 25.6018 15.1955C25.8942 15.4879 26.0404 15.8429 26.0404 16.2607C26.0404 16.6784 25.8942 17.0334 25.6018 17.3258C25.3094 17.6182 24.9544 17.7644 24.5367 17.7644ZM15.5141 17.7644C15.0964 17.7644 14.7413 17.6182 14.4489 17.3258C14.1566 17.0334 14.0104 16.6784 14.0104 16.2607C14.0104 15.8429 14.1566 15.4879 14.4489 15.1955C14.7413 14.9031 15.0964 14.7569 15.5141 14.7569C15.9318 14.7569 16.2869 14.9031 16.5793 15.1955C16.8717 15.4879 17.0179 15.8429 17.0179 16.2607C17.0179 16.6784 16.8717 17.0334 16.5793 17.3258C16.2869 17.6182 15.9318 17.7644 15.5141 17.7644ZM20.0254 20.5213C19.6077 20.5213 19.2526 20.3751 18.9602 20.0827C18.6678 19.7903 18.5216 19.4353 18.5216 19.0175C18.5216 18.5998 18.6678 18.2448 18.9602 17.9524C19.2526 17.66 19.6077 17.5138 20.0254 17.5138C20.4431 17.5138 20.7982 17.66 21.0906 17.9524C21.383 18.2448 21.5292 18.5998 21.5292 19.0175C21.5292 19.4353 21.383 19.7903 21.0906 20.0827C20.7982 20.3751 20.4431 20.5213 20.0254 20.5213ZM20.0254 15.0075C19.6077 15.0075 19.2526 14.8613 18.9602 14.5689C18.6678 14.2765 18.5216 13.9215 18.5216 13.5038C18.5216 13.086 18.6678 12.731 18.9602 12.4386C19.2526 12.1462 19.6077 12 20.0254 12C20.4431 12 20.7982 12.1462 21.0906 12.4386C21.383 12.731 21.5292 13.086 21.5292 13.5038C21.5292 13.9215 21.383 14.2765 21.0906 14.5689C20.7982 14.8613 20.4431 15.0075 20.0254 15.0075ZM20.0254 28.0401C19.6912 28.0401 19.3529 28.015 19.0104 27.9649C18.6678 27.9148 18.3378 27.848 18.0204 27.7644V24.1805C18.0204 23.5957 18.2167 23.0902 18.6094 22.6642C19.002 22.2381 19.474 22.0251 20.0254 22.0251C20.5768 22.0251 21.0488 22.2381 21.4414 22.6642C21.8341 23.0902 22.0304 23.5957 22.0304 24.1805V27.7644C21.7129 27.848 21.383 27.9148 21.0404 27.9649C20.6979 28.015 20.3596 28.0401 20.0254 28.0401ZM16.5166 27.2381C16.1824 27.1044 15.8608 26.9541 15.5517 26.787C15.2426 26.6199 14.946 26.4361 14.662 26.2356C14.1941 25.9014 13.8224 25.467 13.5467 24.9323C13.271 24.3977 13.1332 23.8296 13.1332 23.2281C13.1332 22.7937 13.0872 22.3885 12.9953 22.0125C12.9034 21.6366 12.7405 21.2815 12.5066 20.9474C12.3395 20.7302 12.0262 20.4002 11.5667 19.9574C11.1073 19.5146 10.6854 19.1011 10.3011 18.7168C10.1173 18.533 10.0254 18.2991 10.0254 18.015C10.0254 17.731 10.1173 17.4971 10.3011 17.3133C10.4849 17.1295 10.7188 17.0376 11.0028 17.0376C11.2869 17.0376 11.5208 17.1295 11.7046 17.3133L15.5392 20.9474C15.8733 21.2481 16.1198 21.6032 16.2785 22.0125C16.4373 22.4219 16.5166 22.8438 16.5166 23.2782V27.2381ZM23.5342 27.2381V23.2782C23.5342 22.8438 23.6177 22.4177 23.7848 22C23.9519 21.5823 24.1941 21.2314 24.5116 20.9474L28.3462 17.3133C28.5467 17.1295 28.7848 17.0376 29.0605 17.0376C29.3362 17.0376 29.5659 17.1295 29.7497 17.3133C29.9335 17.4971 30.0254 17.731 30.0254 18.015C30.0254 18.2991 29.9335 18.533 29.7497 18.7168C29.3654 19.1011 28.9435 19.5104 28.484 19.9449C28.0246 20.3793 27.7113 20.7135 27.5442 20.9474C27.3103 21.2815 27.1474 21.6366 27.0555 22.0125C26.9636 22.3885 26.9176 22.7937 26.9176 23.2281C26.9176 23.8296 26.7798 24.4018 26.5041 24.9449C26.2284 25.4879 25.8483 25.9265 25.3637 26.2607C25.0964 26.4444 24.8082 26.6199 24.4991 26.787C24.19 26.9541 23.8683 27.1044 23.5342 27.2381Z" fill="#5F5F5F"/>
</svg>
