<svg width="16" height="16" viewBox="0 0 16 16" fill="none" xmlns="http://www.w3.org/2000/svg">
<path d="M14.8265 16L10.9779 12.1512C10.4211 12.611 9.78075 12.9708 9.05687 13.2306C8.33298 13.4905 7.58414 13.6204 6.81033 13.6204C4.90689 13.6204 3.29598 12.9614 1.97759 11.6434C0.659196 10.3254 0 8.71491 0 6.81188C0 4.90903 0.65901 3.29796 1.97703 1.97867C3.29505 0.659556 4.90559 0 6.80866 0C8.71154 0 10.3226 0.659184 11.642 1.97755C12.9611 3.29592 13.6207 4.90681 13.6207 6.81021C13.6207 7.60554 13.4872 8.36514 13.2203 9.089C12.9532 9.81287 12.5969 10.4425 12.1515 10.9777L16 14.8262L14.8265 16ZM6.81033 11.9502C8.24528 11.9502 9.46066 11.4522 10.4565 10.4563C11.4524 9.4605 11.9504 8.24514 11.9504 6.81021C11.9504 5.37528 11.4524 4.15992 10.4565 3.16414C9.46066 2.16817 8.24528 1.67019 6.81033 1.67019C5.37537 1.67019 4.16 2.16817 3.1642 3.16414C2.16821 4.15992 1.67022 5.37528 1.67022 6.81021C1.67022 8.24514 2.16821 9.4605 3.1642 10.4563C4.16 11.4522 5.37537 11.9502 6.81033 11.9502Z" fill="black"/>
</svg>
