<svg width="16" height="17" viewBox="0 0 16 17" fill="none" xmlns="http://www.w3.org/2000/svg">
<path d="M3.5 10.7885V5.404C3.5 4.9565 3.65733 4.57533 3.972 4.2605C4.28683 3.94583 4.668 3.7885 5.1155 3.7885H14.073L10.998 0.713499L11.7115 0L16 4.2885L11.7115 8.59625L10.998 7.8885L14.073 4.7885H5.1155C4.936 4.7885 4.7885 4.84617 4.673 4.9615C4.55767 5.077 4.5 5.2245 4.5 5.404V10.7885H3.5ZM1.6155 16.2885C1.168 16.2885 0.786833 16.1312 0.472 15.8165C0.157333 15.5017 0 15.1205 0 14.673V0.903999H1V14.673C1 14.8525 1.05767 15 1.173 15.1155C1.2885 15.2308 1.436 15.2885 1.6155 15.2885H12.3845C12.564 15.2885 12.7115 15.2308 12.827 15.1155C12.9423 15 13 14.8525 13 14.673V10.7885H14V14.673C14 15.1205 13.8427 15.5017 13.528 15.8165C13.2132 16.1312 12.832 16.2885 12.3845 16.2885H1.6155Z" fill="black"/>
</svg>
