<svg width="24" height="24" viewBox="0 0 24 24" fill="none" xmlns="http://www.w3.org/2000/svg">
<path d="M3.66895 17.4307L7.6112 6.81543H9.14395L13.1149 17.4307H11.6092L10.6054 14.5537H6.1652L5.15545 17.4307H3.66895ZM6.6247 13.2999H10.1402L8.41519 8.41343H8.3342L6.6247 13.2999ZM16.3842 17.6712C15.5727 17.6712 14.9249 17.45 14.4409 17.0077C13.9569 16.5653 13.7149 15.9948 13.7149 15.2962C13.7149 14.5755 13.9977 13.9889 14.5632 13.5364C15.1285 13.0839 15.8548 12.8577 16.7419 12.8577C17.1124 12.8577 17.481 12.8926 17.8477 12.9624C18.2144 13.0323 18.5343 13.1288 18.8074 13.2519V12.8077C18.8074 12.241 18.6398 11.798 18.3044 11.4787C17.9693 11.1595 17.5023 10.9999 16.9034 10.9999C16.5394 10.9999 16.2039 11.0694 15.8967 11.2084C15.5897 11.3476 15.3035 11.5543 15.0382 11.8287L14.1324 11.1077C14.5196 10.6948 14.9401 10.391 15.3939 10.1962C15.8478 10.0012 16.3561 9.90368 16.9189 9.90368C17.9728 9.90368 18.7574 10.1617 19.2727 10.6777C19.788 11.1938 20.0457 11.9679 20.0457 12.9999V17.4307H18.8074V16.4577H18.7074C18.4613 16.8602 18.1398 17.163 17.7429 17.3662C17.3461 17.5695 16.8932 17.6712 16.3842 17.6712ZM16.5689 16.5904C17.2419 16.5904 17.7859 16.3679 18.2007 15.9229C18.6154 15.4781 18.8227 14.9378 18.8227 14.3019C18.5894 14.1686 18.3022 14.0644 17.9612 13.9894C17.6202 13.9144 17.2849 13.8769 16.9554 13.8769C16.3579 13.8769 15.8868 14.0032 15.5419 14.2557C15.1971 14.5082 15.0247 14.855 15.0247 15.2962C15.0247 15.6678 15.1692 15.9764 15.4582 16.2219C15.7474 16.4676 16.1176 16.5904 16.5689 16.5904Z" fill="black"/>
</svg>
