<svg width="14" height="10" viewBox="0 0 14 10" fill="none" xmlns="http://www.w3.org/2000/svg">
<path d="M0 9.74367V8.2615C0 7.91794 0.0886666 7.61133 0.266 7.34167C0.443333 7.072 0.680167 6.86222 0.9765 6.71233C1.61006 6.40244 2.24711 6.1635 2.88767 5.9955C3.52833 5.82761 4.23239 5.74367 4.99983 5.74367C5.76739 5.74367 6.47144 5.82761 7.112 5.9955C7.75267 6.1635 8.38978 6.40244 9.02333 6.71233C9.31967 6.86222 9.5565 7.072 9.73383 7.34167C9.91117 7.61133 9.99983 7.91794 9.99983 8.2615V9.74367H0ZM11.3332 9.74367V8.1795C11.3332 7.74194 11.2261 7.32489 11.0118 6.92833C10.7975 6.53189 10.4935 6.19172 10.0998 5.90783C10.5468 5.9745 10.9712 6.07767 11.373 6.21733C11.7747 6.35711 12.158 6.52228 12.523 6.71283C12.8674 6.89661 13.1334 7.11322 13.321 7.36267C13.5086 7.612 13.6023 7.88428 13.6023 8.1795V9.74367H11.3332ZM4.99983 4.66667C4.35817 4.66667 3.80889 4.43822 3.352 3.98133C2.89511 3.52433 2.66667 2.975 2.66667 2.33333C2.66667 1.69167 2.89511 1.14239 3.352 0.6855C3.80889 0.2285 4.35817 0 4.99983 0C5.6415 0 6.19083 0.2285 6.64783 0.6855C7.10472 1.14239 7.33317 1.69167 7.33317 2.33333C7.33317 2.975 7.10472 3.52433 6.64783 3.98133C6.19083 4.43822 5.6415 4.66667 4.99983 4.66667ZM10.7562 2.33333C10.7562 2.975 10.5277 3.52433 10.0708 3.98133C9.61395 4.43822 9.06467 4.66667 8.423 4.66667C8.34778 4.66667 8.25206 4.65811 8.13583 4.641C8.0195 4.62389 7.92378 4.60511 7.84867 4.58467C8.11156 4.26856 8.31361 3.91789 8.45483 3.53267C8.59594 3.14744 8.6665 2.74744 8.6665 2.33267C8.6665 1.91778 8.5945 1.51928 8.4505 1.13717C8.3065 0.755166 8.10589 0.4035 7.84867 0.0821666C7.94433 0.0479443 8.04006 0.0257221 8.13583 0.0154999C8.2315 0.00516654 8.32722 0 8.423 0C9.06467 0 9.61395 0.2285 10.0708 0.6855C10.5277 1.14239 10.7562 1.69167 10.7562 2.33333ZM0.999833 8.74367H8.99983V8.2615C8.99983 8.12228 8.965 7.99839 8.89533 7.88983C8.82578 7.78128 8.71533 7.68639 8.564 7.60517C8.01533 7.32228 7.45039 7.10794 6.86917 6.96217C6.28794 6.8165 5.66483 6.74367 4.99983 6.74367C4.33495 6.74367 3.71189 6.8165 3.13067 6.96217C2.54944 7.10794 1.9845 7.32228 1.43583 7.60517C1.2845 7.68639 1.174 7.78128 1.10433 7.88983C1.03467 7.99839 0.999833 8.12228 0.999833 8.2615V8.74367ZM4.99983 3.66667C5.3665 3.66667 5.68039 3.53611 5.9415 3.275C6.20261 3.01389 6.33317 2.7 6.33317 2.33333C6.33317 1.96667 6.20261 1.65278 5.9415 1.39167C5.68039 1.13056 5.3665 1 4.99983 1C4.63317 1 4.31928 1.13056 4.05817 1.39167C3.79706 1.65278 3.6665 1.96667 3.6665 2.33333C3.6665 2.7 3.79706 3.01389 4.05817 3.275C4.31928 3.53611 4.63317 3.66667 4.99983 3.66667Z" fill="#5F5F5F"/>
</svg>
