<svg width="20" height="20" viewBox="0 0 20 20" fill="none" xmlns="http://www.w3.org/2000/svg">
<path d="M3.33366 16.6668C2.87533 16.6668 2.47949 16.5071 2.14616 16.1877C1.82671 15.8543 1.66699 15.4585 1.66699 15.0002V5.00016C1.66699 4.54183 1.82671 4.15294 2.14616 3.8335C2.47949 3.50016 2.87533 3.3335 3.33366 3.3335H13.3337C13.792 3.3335 14.1809 3.50016 14.5003 3.8335C14.8337 4.15294 15.0003 4.54183 15.0003 5.00016V8.75016L18.3337 5.41683V14.5835L15.0003 11.2502V15.0002C15.0003 15.4585 14.8337 15.8543 14.5003 16.1877C14.1809 16.5071 13.792 16.6668 13.3337 16.6668H3.33366ZM3.33366 15.0002H13.3337V5.00016H3.33366V15.0002ZM3.33366 15.0002V5.00016V15.0002Z" fill="#1D1B20"/>
</svg>
